<?xml version="1.0" encoding="utf-8"?>
<!-- Generator: Adobe Illustrator 24.2.3, SVG Export Plug-In . SVG Version: 6.00 Build 0)  -->
<svg version="1.1" id="Layer_1" xmlns="http://www.w3.org/2000/svg" xmlns:xlink="http://www.w3.org/1999/xlink" x="0px" y="0px"
	 viewBox="0 0 136 30" style="enable-background:new 0 0 136 30;" xml:space="preserve">
<style type="text/css">
	.st0{fill-rule:evenodd;clip-rule:evenodd;fill:#FFFFFF;}
</style>
<path class="st0" d="M0,2.3v2.3h3h3V2.3V0H3H0V2.3z M129.4,0.9c-0.1,0.1-0.2,2.1-0.2,4.5v4.2l-0.8-0.7c-1.7-1.5-3.2-2-5.9-2
	c-1.8,0-3,0.2-3.7,0.6c-1.5,0.8-3.2,2.8-3.6,4.4c-0.5,1.7-0.5,5.2,0,6.8c1,3.3,3.8,5.3,7.7,5.3c2.5,0,4.1-0.5,5.4-1.9
	c0.8-0.8,1-0.9,1.1-0.4c0.1,0.3,0.2,0.9,0.2,1.2c0,0.6,0.3,0.7,2.8,0.7h2.8V12.2V0.7h-2.8C130.9,0.7,129.5,0.8,129.4,0.9z
	 M106.2,12.4v11.3h3h3V12.4V1.1h-3h-3V12.4z M18.6,7.2c-0.8,0.3-1.9,1-2.6,1.6L14.8,10V8.5V7.1H12H9.2v11.5V30h3h3v-4.4v-4.4
	l0.7,0.7c1.9,1.9,5.7,2.6,8.8,1.7c3.9-1.2,5.8-6.2,4.5-11.5C28.2,8,23.1,5.6,18.6,7.2z M73.7,7.2c-3.6,1-5.3,3.3-5.5,7.5
	c-0.2,4.3,0.9,6.8,3.9,8.4c1.3,0.7,2,0.8,5.9,0.8c4.9,0,6.4-0.5,8.2-2.6c2.4-2.9,2.2-9.2-0.5-11.9C83.6,7,78,6,73.7,7.2z M0,15.4
	v8.3h3h3v-8.3V7.1H3H0V15.4z M37.4,7.2c0,0.1,1.4,3.8,3.2,8.3l3.2,8.1h2.9h2.9l1.3-4c0.7-2.2,1.4-4.1,1.5-4.2c0.1-0.1,0.9,1.6,1.6,4
	l1.4,4.2l3-0.1l3-0.1l3.3-8.2L68,7.1h-3.1h-3.1L60.1,12c-0.9,2.7-1.8,4.8-1.9,4.8c-0.1-0.1-0.9-2.3-1.8-4.8l-1.6-4.7h-2.3h-2.3
	l-1.6,4.7c-0.9,2.6-1.7,4.7-1.8,4.7c-0.1,0-1-2.1-1.9-4.7l-1.6-4.7l-3-0.1C38.8,7.1,37.4,7.1,37.4,7.2z M90.4,15.4v8.3h3h3l0-3.6
	c0-5.6,1.1-7.1,5.6-7.8l2.5-0.4V9.4V7l-1.9,0.2c-2.4,0.2-4.5,1.3-5.7,2.8L96,11.1l0-2l0-2h-2.8h-2.8V15.4z M18,11.7
	c-1.7,0.4-2.8,1.8-2.8,3.5c0,1.9,0.8,3.3,2.2,3.8c4.2,1.5,7.7-1.9,5.8-5.6C22.3,11.8,20.4,11.1,18,11.7z M75.7,11.8
	c-1.5,0.8-2,1.6-2,3.6c0,1.4,0.2,2,0.8,2.8c1.6,1.8,6.2,1.5,7.3-0.5c0.5-1,0.4-3.4-0.2-4.6C80.9,11.4,77.8,10.8,75.7,11.8z
	 M123.3,11.7c-3.9,1.1-3.3,7.1,0.9,7.6c2.9,0.4,5-1.3,5-3.9c0-1.9-1-3.2-2.8-3.7C124.9,11.2,124.8,11.2,123.3,11.7z M31.4,21v2.7
	h3.4h3.4L38,21.1l-0.1-2.6l-3.3-0.1l-3.3-0.1V21z"/>
</svg>
