<svg width="192" height="60" viewBox="0 0 192 60" fill="none" xmlns="http://www.w3.org/2000/svg">
<path d="M62.2942 25.0323L62.2605 25.0436C61.1317 24.5937 59.793 24.3687 58.2217 24.3687C56.6505 24.3687 55.2217 24.5712 53.9692 24.9761C52.7205 25.381 51.693 25.9659 50.913 26.7195C50.1217 27.4843 49.6305 28.4066 49.4392 29.4864C49.1955 30.8473 49.4955 31.9271 50.343 32.7256C51.1905 33.513 52.698 34.0191 54.873 34.2328L58.008 34.559C59.0917 34.6715 59.8042 34.8627 60.1605 35.1101C60.5167 35.3575 60.6517 35.7175 60.573 36.1786C60.4605 36.786 60.0255 37.2471 59.2792 37.5846C58.5217 37.922 57.5392 38.0794 56.3205 38.0794C55.473 38.0794 54.7455 37.9782 54.1455 37.7758C53.5455 37.5733 53.0842 37.2809 52.773 36.9097C52.4617 36.5385 52.3155 36.0999 52.3267 35.6162H48.1305C47.973 36.741 48.1867 37.7195 48.7567 38.5631C49.3267 39.4066 50.208 40.059 51.3892 40.5314C52.5705 41.0038 54.0105 41.24 55.698 41.24C57.3855 41.24 58.788 41.015 60.1042 40.5539C61.4092 40.0927 62.4817 39.4516 63.3067 38.6193C64.1317 37.787 64.6567 36.831 64.848 35.7175C65.0167 34.7952 64.9492 34.0303 64.6455 33.4342C64.3455 32.8269 63.7642 32.3545 62.9055 32.0058C62.0467 31.6571 60.8542 31.4097 59.3467 31.2522L56.043 30.881C55.0717 30.7686 54.4042 30.5886 54.0555 30.3412C53.7105 30.0937 53.5755 29.7563 53.6542 29.3289C53.7555 28.7553 54.168 28.3166 54.8692 28.0017C55.5705 27.698 56.478 27.5405 57.5805 27.5405C58.4055 27.5405 59.088 27.6305 59.6317 27.8105C60.1792 27.9904 60.603 28.2379 60.8917 28.5416C61.1805 28.8565 61.3155 29.2164 61.293 29.6551H65.5005C65.6355 28.609 65.4105 27.6868 64.8292 26.8882C64.248 26.1009 63.4005 25.4822 62.283 25.0323H62.2942Z" fill="#28E6FF"/>
<path d="M73.3525 29.3964V29.3626C73.0638 29.5089 72.805 29.6888 72.5388 29.8688L72.805 28.3166H68.8975L65.6613 46.8675H69.5688L70.7163 40.269C71.6875 40.9101 72.9138 41.2587 74.2413 41.2587C75.5688 41.2587 77.0763 40.9101 78.4825 40.179C80.2563 39.2567 81.685 37.862 82.5213 36.2536C83.4138 34.5215 83.515 32.6769 82.81 31.1922C81.3925 28.2116 77.1513 27.4131 73.3488 29.3926L73.3525 29.3964ZM79.6113 34.9489C79.1313 35.8824 78.2275 36.7485 77.1325 37.3221C75.025 38.4244 72.6813 38.1769 72.01 36.7935C71.6088 35.9612 71.965 35.0389 72.2125 34.5665C72.6925 33.6329 73.5962 32.7669 74.6912 32.1933C75.5837 31.7321 76.5213 31.5072 77.3463 31.5072C78.4825 31.5072 79.42 31.9233 79.8025 32.7331C80.2038 33.5655 79.8475 34.4877 79.6 34.9601L79.6113 34.9489Z" fill="#28E6FF"/>
<path d="M89.5557 29.3739V29.3626C87.8382 30.2849 86.4432 31.6796 85.6407 33.288C84.7707 35.0201 84.6695 36.8647 85.3632 38.3494C86.2332 40.2277 88.187 41.24 90.4295 41.24C91.757 41.24 93.1745 40.8913 94.547 40.1602C96.2645 39.2379 97.6595 37.8433 98.4657 36.2349C99.3357 34.5027 99.437 32.6582 98.7432 31.1735C97.3707 28.1929 93.242 27.3943 89.5595 29.3739H89.5557ZM95.6382 34.9601V34.9489C95.1695 35.8824 94.2882 36.7485 93.2382 37.3221C91.1832 38.4244 88.907 38.1769 88.2732 36.7935C87.8832 35.9612 88.2282 35.0389 88.4645 34.5665C88.9332 33.6329 89.8145 32.7669 90.8645 32.1933C91.7345 31.7321 92.6382 31.5072 93.4407 31.5072C94.547 31.5072 95.462 31.9233 95.8295 32.7331C96.2082 33.5655 95.8745 34.4878 95.6382 34.9601Z" fill="#28E6FF"/>
<path d="M108.624 24.3687H106.37L104.072 28.3054L101.383 29.3739L101.083 31.1172H103.584L102.725 35.9762C102.534 37.0447 102.545 37.967 102.827 38.7543C103.093 39.5416 103.629 40.149 104.42 40.5876C105.212 41.0263 106.284 41.24 107.645 41.24C108.414 41.24 109.029 41.1613 109.787 41.015C110.533 40.8688 111.504 40.7114 111.984 40.5314L112.543 37.3371C112.074 37.5283 111.227 37.697 110.713 37.8095C110.199 37.922 109.543 37.9782 108.917 37.9782C107.923 37.9782 107.267 37.787 106.94 37.4046C106.618 37.0222 106.539 36.3473 106.708 35.3913L107.454 31.1172H113.627L114.118 28.3054H107.945L108.624 24.3687Z" fill="#28E6FF"/>
<path d="M117.598 24.3687L114.639 41.2362H118.535L121.483 24.3687H117.598Z" fill="#28E6FF"/>
<path d="M121.325 41.2362H125.24L127.261 29.7113H123.346L121.325 41.2362Z" fill="#28E6FF"/>
<path d="M126.744 24.3687C126.253 24.3687 125.709 24.5037 125.188 24.7849C124.55 25.1336 124.018 25.651 123.736 26.2133C123.59 26.4945 123.391 27.0569 123.613 27.563C124.003 28.4066 125.375 28.5528 126.616 27.8892C127.254 27.5405 127.786 27.0232 128.068 26.4608C128.214 26.1796 128.413 25.6172 128.18 25.1111C127.959 24.6274 127.404 24.3725 126.748 24.3687H126.744Z" fill="#28E6FF"/>
<path d="M160.939 28.8003H160.917C160.081 28.3054 159.019 28.0579 157.714 28.0579C156.586 28.0579 155.517 28.3054 154.501 28.789C153.563 29.2389 152.671 29.8913 151.924 30.7123L153.031 24.3725H149.127L146.179 41.24H150.087L151.171 35.0576C151.306 34.3265 151.583 33.6967 151.973 33.1568C152.374 32.6282 152.866 32.212 153.469 31.9196C154.062 31.6271 155.378 31.4809 156.124 31.4809C157.186 31.4809 157.943 31.7509 158.401 32.302C158.847 32.8531 158.982 33.6517 158.779 34.7202L157.628 41.24H161.536L162.807 34.0903C163.039 32.8419 162.998 31.7734 162.672 30.8848C162.346 29.9962 161.768 29.2989 160.943 28.804L160.939 28.8003Z" fill="#28E6FF"/>
<path d="M141.534 29.4976H141.522C139.625 27.9679 136.512 27.833 133.655 29.3626C131.937 30.2849 130.542 31.6796 129.736 33.288C128.866 35.0201 128.765 36.8647 129.459 38.3494C130.329 40.2277 132.282 41.24 134.525 41.24C135.852 41.24 137.27 40.8913 138.642 40.1602C139.032 39.9465 139.411 39.6991 139.771 39.4404L139.749 39.5866C139.49 41.0263 138.912 42.0836 137.986 42.7696C137.06 43.4557 135.631 43.7932 134.124 43.7932C133.096 43.7932 132.114 43.6357 131.165 43.332C130.561 43.1296 129.871 42.7921 129.234 42.3872L128.686 45.5028C129.354 45.874 130.07 46.2114 130.685 46.4138C131.622 46.7175 132.672 46.875 133.854 46.875C135.549 46.875 137.09 46.5826 138.474 45.9977C139.857 45.4128 141.009 44.558 141.924 43.4445C142.839 42.331 143.442 40.97 143.72 39.3842L145.674 28.2866H141.744L141.534 29.5013V29.4976ZM139.737 34.9601C139.269 35.8937 138.387 36.7597 137.337 37.3334V37.3221C135.282 38.4244 133.006 38.1769 132.372 36.7935C131.994 35.9612 132.327 35.0389 132.564 34.5665C133.032 33.6329 133.914 32.7669 134.964 32.1933C135.834 31.7321 136.737 31.5072 137.54 31.5072C138.646 31.5072 139.561 31.9233 139.929 32.7331C140.307 33.5654 139.974 34.4877 139.737 34.9601Z" fill="#28E6FF"/>
<path d="M171.038 31.1247H177.21L177.702 28.3129H171.529L172.208 24.3763H169.954L167.655 28.3129L164.967 29.3814L164.667 31.1247H167.168L166.309 35.9837C166.118 37.0522 166.129 37.9745 166.41 38.7618C166.677 39.5491 167.213 40.1565 168.008 40.5951C168.799 41.0338 169.872 41.2475 171.233 41.2475C172.002 41.2475 172.617 41.1688 173.374 41.0225C174.12 40.8763 175.092 40.7189 175.572 40.5389L176.13 37.3446C175.662 37.5358 174.814 37.7045 174.3 37.817C173.787 37.9295 173.13 37.9857 172.504 37.9857C171.51 37.9857 170.854 37.7945 170.528 37.4121C170.205 37.0297 170.127 36.3548 170.295 35.3988L171.042 31.1247H171.038Z" fill="#28E6FF"/>
<path d="M41.9397 25.5062C40.9479 23.6024 39.124 22.5879 37.0492 21.7215L14.25 12.75L20.2234 35.6518C20.3602 36.1306 20.5198 36.598 20.7478 37.0426C23.0847 41.534 29.7193 42.5942 35.5673 39.4137C41.4153 36.2332 44.2652 29.9976 41.9397 25.5062ZM33.4583 35.344C29.6737 37.4074 25.718 36.8032 24.7262 34.8766C23.7345 32.9615 25.4444 29.268 29.2291 27.2047C33.0138 25.1414 36.9694 25.7456 37.9612 27.6721C38.953 29.5872 37.243 33.2807 33.4583 35.344Z" fill="#FAF582"/>
</svg>
