<svg width="2400" height="576" viewBox="0 0 2400 576" fill="none" xmlns="http://www.w3.org/2000/svg">
<path d="M1151.35 192V272H891.894V495.996H1151.35V575.996L891.887 575.999C847.107 575.999 810.806 539.698 810.806 494.918V273.087C810.806 228.304 847.11 192 891.894 192H1151.35Z" fill="#DDFF80"/>
<path d="M1086.48 351.999V415.999H956.753V351.999H1086.48Z" fill="#DDFF80"/>
<path d="M2189.18 0H2108.1V575.998H2189.18V272.001L2318.9 272.001V576H2399.98L2400 288.005C2400 234.984 2357.02 192.001 2304 192.001H2189.18V0Z" fill="#DDFF80"/>
<path d="M518.906 272H340.534L340.542 479.992C340.545 533.013 297.563 575.996 244.542 575.996H48.6549V495.995H0V303.995H81.081V495.995L259.453 495.996L259.448 288.002C259.447 234.982 302.428 192 355.448 192L518.906 192V272L599.986 271.999V575.998H518.906V272Z" fill="#DDFF80"/>
<path d="M745.95 0H664.869V575.998H745.95V0Z" fill="#DDFF80"/>
<path d="M1816.22 495.998H1670.26V575.997H1801.29C1854.31 575.997 1897.29 533.019 1897.29 480.002L1897.3 272.001L2043.25 272.001V192.001L1912.22 192.001C1859.21 192.001 1816.22 234.981 1816.22 288L1816.22 495.998Z" fill="#DDFF80"/>
<path fill-rule="evenodd" clip-rule="evenodd" d="M1524.33 575.996H1605.41V288C1605.41 234.981 1562.43 192 1509.41 192H1312.22C1259.2 192 1216.22 234.978 1216.22 287.996L1216.21 575.996H1297.29V423.999L1524.33 423.998V575.996ZM1524.33 343.999V272H1297.29V343.999H1524.33Z" fill="#DDFF80"/>
</svg>
