<svg width="89" height="38" viewBox="0 0 89 38" fill="none" xmlns="http://www.w3.org/2000/svg">
<path d="M16.0475 37.0326V18.7062C23.3447 19.9325 28.151 24.1297 31.9429 27.6556C24.4506 28.6742 19.9012 31.9428 16.0475 37.0326Z" fill="url(#paint0_linear_41_7)"></path>
<path d="M0 27.822V9.4006L16.0475 18.7184V37.0326L0 27.822Z" fill="url(#paint1_linear_41_7)"></path>
<path d="M8.64099 6.18583C16.4903 4.89918 25.6169 6.49782 31.9366 9.25854C30.9259 8.55428 20.9671 2.84322 15.9809 0C12.9806 1.77506 10.7304 3.87287 8.64099 6.18583Z" fill="url(#paint2_linear_41_7)"></path>
<path d="M32 9.22911V27.6734C29.1591 25.0462 24.7638 20.7376 16.0268 18.7537L8.0134 14.089L0 9.4006C10.7631 2.70918 25.8537 6.44102 32 9.22911Z" fill="url(#paint3_linear_41_7)"></path>
<path d="M45.9655 25.5163L40.8255 11.5163H43.3855L47.4255 23.0563L51.4855 11.5163H54.0255L48.8855 25.5163H45.9655ZM58.8413 25.7563C57.8413 25.7563 56.9547 25.543 56.1813 25.1163C55.4213 24.6763 54.8213 24.0763 54.3813 23.3163C53.9547 22.543 53.7413 21.643 53.7413 20.6163C53.7413 19.5763 53.9547 18.663 54.3813 17.8763C54.808 17.0897 55.4013 16.4763 56.1613 16.0363C56.9347 15.583 57.828 15.3563 58.8413 15.3563C59.828 15.3563 60.688 15.5763 61.4213 16.0163C62.1547 16.443 62.728 17.0163 63.1413 17.7363C63.5547 18.4563 63.7613 19.2697 63.7613 20.1763C63.7613 20.3097 63.7547 20.4563 63.7413 20.6163C63.7413 20.7763 63.7347 20.9497 63.7213 21.1363H55.4613V19.5963H61.3413C61.3013 18.8897 61.048 18.3363 60.5813 17.9363C60.1147 17.523 59.5347 17.3163 58.8413 17.3163C58.348 17.3163 57.888 17.4297 57.4613 17.6563C57.048 17.8697 56.7147 18.1963 56.4613 18.6363C56.2213 19.063 56.1013 19.6097 56.1013 20.2763V20.8563C56.1013 21.4697 56.2213 21.9963 56.4613 22.4363C56.7013 22.863 57.028 23.1963 57.4413 23.4363C57.8547 23.663 58.3147 23.7763 58.8213 23.7763C59.368 23.7763 59.828 23.6563 60.2013 23.4163C60.5747 23.163 60.8547 22.8297 61.0413 22.4163H63.4613C63.288 23.0563 62.9813 23.6297 62.5413 24.1363C62.1147 24.6297 61.588 25.023 60.9613 25.3163C60.3347 25.6097 59.628 25.7563 58.8413 25.7563ZM65.5368 25.5163V15.5963H67.6768L67.8968 17.4763C68.1368 17.0363 68.4301 16.663 68.7768 16.3563C69.1235 16.0363 69.5301 15.7897 69.9968 15.6163C70.4635 15.443 70.9835 15.3563 71.5568 15.3563V17.8763H70.8968C70.4701 17.8763 70.0768 17.9297 69.7168 18.0363C69.3568 18.1297 69.0435 18.2897 68.7768 18.5163C68.5101 18.743 68.3035 19.0563 68.1568 19.4563C68.0101 19.843 67.9368 20.323 67.9368 20.8963V25.5163H65.5368ZM73.0298 25.5163V15.5963H75.4298V25.5163H73.0298ZM74.2498 13.9363C73.7964 13.9363 73.4298 13.803 73.1498 13.5363C72.8698 13.2563 72.7298 12.9163 72.7298 12.5163C72.7298 12.103 72.8698 11.7697 73.1498 11.5163C73.4298 11.2497 73.7964 11.1163 74.2498 11.1163C74.6898 11.1163 75.0498 11.2497 75.3298 11.5163C75.6231 11.7697 75.7698 12.103 75.7698 12.5163C75.7698 12.9163 75.6231 13.2563 75.3298 13.5363C75.0498 13.803 74.6898 13.9363 74.2498 13.9363ZM82.4641 25.7563C81.5175 25.7563 80.6575 25.5363 79.8841 25.0963C79.1241 24.6563 78.5241 24.0497 78.0841 23.2763C77.6441 22.4897 77.4241 21.583 77.4241 20.5563C77.4241 19.5297 77.6441 18.623 78.0841 17.8363C78.5375 17.0497 79.1441 16.443 79.9041 16.0163C80.6775 15.5763 81.5375 15.3563 82.4841 15.3563C83.4441 15.3563 84.3041 15.5763 85.0641 16.0163C85.8241 16.443 86.4241 17.0497 86.8641 17.8363C87.3175 18.6097 87.5441 19.5163 87.5441 20.5563C87.5441 21.583 87.3175 22.4897 86.8641 23.2763C86.4241 24.0497 85.8175 24.6563 85.0441 25.0963C84.2841 25.5363 83.4241 25.7563 82.4641 25.7563ZM82.4641 23.6963C82.9441 23.6963 83.3775 23.583 83.7641 23.3563C84.1641 23.1163 84.4841 22.763 84.7241 22.2963C84.9641 21.8297 85.0841 21.2497 85.0841 20.5563C85.0841 19.863 84.9641 19.283 84.7241 18.8163C84.4841 18.3497 84.1641 18.003 83.7641 17.7763C83.3775 17.5363 82.9508 17.4163 82.4841 17.4163C82.0308 17.4163 81.6041 17.5363 81.2041 17.7763C80.8041 18.003 80.4775 18.3497 80.2241 18.8163C79.9841 19.283 79.8641 19.863 79.8641 20.5563C79.8641 21.2497 79.9841 21.8297 80.2241 22.2963C80.4775 22.763 80.7975 23.1163 81.1841 23.3563C81.5841 23.583 82.0108 23.6963 82.4641 23.6963Z" fill="white"></path>
<defs>
<linearGradient id="paint0_linear_41_7" x1="24.0237" y1="18.7062" x2="24.0237" y2="37.0326" gradientUnits="userSpaceOnUse">
<stop stop-color="#233DFF"></stop>
<stop offset="1" stop-color="#DADFFF"></stop>
</linearGradient>
<linearGradient id="paint1_linear_41_7" x1="8.02374" y1="9.4006" x2="8.02374" y2="37.0326" gradientUnits="userSpaceOnUse">
<stop stop-color="#233DFF"></stop>
<stop offset="1" stop-color="#DADFFF"></stop>
</linearGradient>
<linearGradient id="paint2_linear_41_7" x1="20.3741" y1="0" x2="20.3741" y2="9.30564" gradientUnits="userSpaceOnUse">
<stop stop-color="#233DFF"></stop>
<stop offset="1" stop-color="#DADFFF"></stop>
</linearGradient>
<linearGradient id="paint3_linear_41_7" x1="16" y1="5.60238" x2="16" y2="27.727" gradientUnits="userSpaceOnUse">
<stop stop-color="#233DFF"></stop>
<stop offset="1" stop-color="#DADFFF"></stop>
</linearGradient>
</defs>
</svg>